<?xml version="1.0" encoding="utf-8"?>
<!-- Generator: Adobe Illustrator 19.2.1, SVG Export Plug-In . SVG Version: 6.00 Build 0)  -->
<svg version="1.1" id="layer" xmlns="http://www.w3.org/2000/svg" xmlns:xlink="http://www.w3.org/1999/xlink" x="0px" y="0px"
	 viewBox="0 0 652 652" style="enable-background:new 0 0 652 652;" xml:space="preserve">
<style type="text/css">
	.st0{fill-rule:evenodd;clip-rule:evenodd;fill:#002956;}
	.st1{fill:#002956;}
	.st2{fill:#003359;}
	.st3{fill:#E98300;}
	.st4{fill:#CF0072;}
</style>
<path class="st0" d="M251.4,356.1h13.8v-21.6h13.1l23.9,21.6h20L295,334.5h7.8c9.2,0,13.4-3.1,13.4-10.9v-13.5
	c0-8-4.2-11.1-13.4-11.1h-51.4V356.1z M296.9,308.9c4.2,0,6.3,0.8,6.3,4.6v6.6c0,3.8-2.2,4.6-6.3,4.6h-31.7v-15.8H296.9z"/>
<rect x="334.3" y="299" class="st0" width="13.9" height="57.1"/>
<path class="st0" d="M418.7,309.5v8.6l14-0.1v-5.5c0-10.8-3.6-13.5-15-13.5h-35.6c-11.3,0-14.8,2.8-14.8,13.5v30.1
	c0,10.5,3.4,13.5,14.8,13.5h35.6c11.3,0,15-2.8,15-13.5v-6.7l-14,0.1v9.2h-37.5v-35.6H418.7z"/>
<path class="st0" d="M449.2,312.5v30.1c0,10.8,3.5,13.5,14.8,13.5h44.1c11.2,0,14.8-2.7,14.8-13.5v-30.1c0-10.9-3.6-13.5-14.8-13.5
	H464C452.8,299,449.2,301.6,449.2,312.5z M463.1,345.1v-35.6h46v35.6H463.1z"/>
<polygon class="st0" points="542.1,356.1 553.3,356.1 553.3,317.8 579.1,349.2 581.8,349.2 607.3,316.8 607.3,356.1 620.2,356.1 
	620.2,299 609,299 581.2,332.9 553.3,299 542.1,299 "/>
<g>
	<path class="st1" d="M191,308.8l0,0.8v11.9h24.4v9.7l-24.4,0v14l43.7,0.2v10.7l-45,0c-6.9-0.3-10.3-2-11.8-6.5
		c-0.6-1.8-0.9-4.2-0.9-7v-30.1c0-2.9,0.3-5.2,0.9-7c1.5-4.5,5-6.2,11.8-6.4l44.4,0v9.7H191z"/>
</g>
<g>
	<path class="st1" d="M179.7,370.3h12.8c4.3,0,6.5,2.1,6.5,6.1c0,2-0.7,3.6-2,4.5c2.3,1.5,3.5,3.7,3.5,6.6c0,4.5-2.7,7.4-7.3,7.4
		h-13.5V370.3z M192.7,380c2.3,0,3.5-1.2,3.5-3.4c0-2.3-1.2-3.5-3.5-3.5h-10.4v6.9H192.7z M193.7,392c2.5,0,4-1.8,4-4.6
		c0-2.7-1.4-4.6-4-4.6h-11.3v9.2H193.7z"/>
	<path class="st1" d="M205.1,375.9h15.7v2.8h-13.1v4.7h8.6v2.7h-8.6v6h13.8v2.7h-16.4V375.9z"/>
	<path class="st1" d="M257.6,388.8c-2,4.3-5.6,6.7-9.9,6.7c-6.5,0-11.2-5.4-11.2-12.9c0-7.5,4.7-12.9,11.2-12.9c4,0,7.4,2.1,9.5,5.7
		l-2.2,1.8c-1.4-3-4.1-4.7-7.2-4.7c-4.8,0-8.4,4.2-8.4,10c0,5.8,3.6,10,8.4,10c3.4,0,6.1-1.9,7.8-5.6L257.6,388.8z"/>
	<path class="st1" d="M260.2,385.4c0-5.7,4.1-10,10.2-10c6.2,0,10.3,4.3,10.3,10c0,5.7-4.1,10.1-10.3,10.1
		C264.2,395.5,260.2,391,260.2,385.4z M278,385.4c0-4.1-3-7.3-7.6-7.3c-4.6,0-7.5,3.2-7.5,7.3c0,4.1,3,7.3,7.5,7.3
		C275,392.7,278,389.4,278,385.4z"/>
	<path class="st1" d="M284.5,375.9h1.4l10.6,13.4v-13.4h2.6v19h-1.4l-10.6-13.3v13.3h-2.6V375.9z"/>
	<path class="st1" d="M304.5,375.9h1.4l10.6,13.4v-13.4h2.6v19h-1.4L307,381.6v13.3h-2.6V375.9z"/>
	<path class="st1" d="M324.4,375.9h15.7v2.8H327v4.7h8.6v2.7H327v6h13.8v2.7h-16.4V375.9z"/>
	<path class="st1" d="M352.8,395.5c-5.9,0-10.1-4.3-10.1-10c0-5.7,4.2-10.1,10.1-10.1c3.7,0,6.8,1.6,8.6,4.5l-2.1,1.6
		c-1.4-2.1-3.7-3.4-6.5-3.4c-4.3,0-7.4,3.1-7.4,7.3c0,4.1,3.1,7.3,7.4,7.3c3,0,5.2-1.3,6.9-4.1l2.1,1.6
		C359.9,393.6,356.7,395.5,352.8,395.5z"/>
	<path class="st1" d="M369.8,378.5h-7.1v-2.6h16.7v2.6h-7.1v16.4h-2.6V378.5z"/>
	<path class="st1" d="M381.7,375.9h15.7v2.8h-13.1v4.7h8.6v2.7h-8.6v6h13.8v2.7h-16.4V375.9z"/>
	<path class="st1" d="M418,385.4c0,5.5-3.3,9.4-9.1,9.4h-7.4v-19h7.4C414.5,375.9,418,380,418,385.4z M404,378.6v13.5h4.9
		c4.2,0,6.4-2.8,6.4-6.7c0-3.9-2.4-6.8-6.4-6.8H404z"/>
	<path class="st1" d="M425.4,394.9c0,0-0.1,0-0.2,0c-0.8,0-1.4-0.8-1.4-2c0-1.3,0.7-2.2,1.7-2.2c1,0,1.8,1,1.8,3c0,1.6-1,3.6-3,5.8
		l-0.7-0.8C424.5,397.4,425.1,396.1,425.4,394.9z"/>
	<path class="st1" d="M437.8,370.3h12.8c4.3,0,6.5,2.1,6.5,6.1c0,2-0.7,3.6-2,4.5c2.3,1.5,3.5,3.7,3.5,6.6c0,4.5-2.7,7.4-7.3,7.4
		h-13.5V370.3z M450.8,380c2.3,0,3.5-1.2,3.5-3.4c0-2.3-1.2-3.5-3.5-3.5h-10.3v6.9H450.8z M451.8,392c2.5,0,4-1.8,4-4.6
		c0-2.7-1.4-4.6-4-4.6h-11.3v9.2H451.8z"/>
	<path class="st1" d="M463.2,375.9h15.7v2.8h-13.1v4.7h8.6v2.7h-8.6v6h13.8v2.7h-16.4V375.9z"/>
	<path class="st1" d="M495.8,388.5c3.1,2.7,6.5,4.1,9.7,4.1c4.1,0,6.7-2.2,6.7-5.2c0-2.2-1.7-4.1-5.1-4.4c-3.7-0.3-6.6-0.4-8.9-1.6
		c-2-1.1-3.1-2.9-3.1-5.1c0-3.8,3.2-6.8,8.4-6.8c3.7,0,7.2,1.4,10.4,4l-1.6,2.6c-2.7-2.5-5.7-3.7-8.7-3.7c-3.4,0-5.6,1.7-5.6,3.8
		c0,0.9,0.4,1.6,1,2.2c1.8,1.6,4.9,1.2,8.9,1.7c4.5,0.6,7.1,3.6,7.1,7.3c0,4.2-3.5,7.9-9.5,7.9c-4.3,0-7.9-1.4-11.3-4.3L495.8,388.5
		z"/>
	<path class="st1" d="M519.4,375.9h15.7v2.8H522v4.7h8.6v2.7H522v6h13.8v2.7h-16.4V375.9z"/>
	<path class="st1" d="M547.8,395.5c-5.9,0-10.1-4.3-10.1-10c0-5.7,4.2-10.1,10.1-10.1c3.7,0,6.8,1.6,8.6,4.5l-2.1,1.6
		c-1.4-2.1-3.7-3.4-6.5-3.4c-4.3,0-7.4,3.1-7.4,7.3c0,4.1,3.1,7.3,7.4,7.3c3,0,5.2-1.3,6.9-4.1l2.1,1.6
		C555,393.6,551.8,395.5,547.8,395.5z"/>
	<path class="st1" d="M563.5,375.9v12.2c0,3.7,1.2,4.6,5.7,4.6c4.4,0,5.7-0.9,5.7-4.6v-12.2h2.6v12.9c0,4.7-2.5,6.6-8.3,6.6
		c-5.9,0-8.2-1.9-8.2-6.6v-12.9H563.5z"/>
	<path class="st1" d="M585.4,394.9h-2.6v-19h11.5c3.4,0,5.5,2,5.5,5.3c0,2.6-1.6,4.9-4.1,5.3l4.7,8.3h-2.8l-4.7-8.3h-7.3V394.9z
		 M594.3,383.8c1.8,0,2.8-0.9,2.8-2.6c0-1.6-1-2.6-2.8-2.6h-8.9v5.1H594.3z"/>
	<path class="st1" d="M604.1,375.9h15.7v2.8h-13.1v4.7h8.6v2.7h-8.6v6h13.8v2.7h-16.4V375.9z"/>
</g>
<g>
	<g>
		<defs>
			<path id="SVGID_1_" d="M60.8,307.3l16.6,15.6c6.3-5.9,11.4-11.2,18.9-15.6L81.3,291L60.8,307.3z"/>
		</defs>
		<linearGradient id="SVGID_2_" gradientUnits="userSpaceOnUse" x1="71.5718" y1="298.5698" x2="85.7753" y2="316.1096">
			<stop  offset="0.5" style="stop-color:#000000;stop-opacity:0"/>
			<stop  offset="1" style="stop-color:#000000;stop-opacity:0.15"/>
		</linearGradient>
		<use xlink:href="#SVGID_1_"  style="overflow:visible;fill-rule:evenodd;clip-rule:evenodd;fill:url(#SVGID_2_);"/>
		<clipPath id="SVGID_3_">
			<use xlink:href="#SVGID_1_"  style="overflow:visible;"/>
		</clipPath>
	</g>
	<path class="st2" d="M29.8,301.1l12.8-12.9l34.9,34.6l-35.3,35.4l-12.6-12.5C17.4,333.5,17.5,313.4,29.8,301.1z"/>
	<g>
		<defs>
			<path id="SVGID_4_" d="M95.9,338.8c17.7-18.3,21-15.1,40.5-17.9l-1.8,25.3C121.7,349.7,107,345.9,95.9,338.8z"/>
		</defs>
		<linearGradient id="SVGID_5_" gradientUnits="userSpaceOnUse" x1="131.4936" y1="348.773" x2="111.9493" y2="324.6379">
			<stop  offset="0.5" style="stop-color:#000000;stop-opacity:0"/>
			<stop  offset="1" style="stop-color:#000000;stop-opacity:0.15"/>
		</linearGradient>
		<use xlink:href="#SVGID_4_"  style="overflow:visible;fill-rule:evenodd;clip-rule:evenodd;fill:url(#SVGID_5_);"/>
		<clipPath id="SVGID_6_">
			<use xlink:href="#SVGID_4_"  style="overflow:visible;"/>
		</clipPath>
	</g>
	<g>
		<defs>
			<path id="SVGID_7_" d="M124.1,322.3c15-1.8,19.2-0.2,28.9-14.6c-12.9-6.8-21.7-8.4-36.1-7.4L124.1,322.3z"/>
		</defs>
		<linearGradient id="SVGID_8_" gradientUnits="userSpaceOnUse" x1="122.802" y1="295.5785" x2="142.1663" y2="319.4914">
			<stop  offset="0.65" style="stop-color:#000000;stop-opacity:0"/>
			<stop  offset="1" style="stop-color:#000000;stop-opacity:0.2"/>
		</linearGradient>
		<use xlink:href="#SVGID_7_"  style="overflow:visible;fill-rule:evenodd;clip-rule:evenodd;fill:url(#SVGID_8_);"/>
		<clipPath id="SVGID_9_">
			<use xlink:href="#SVGID_7_"  style="overflow:visible;"/>
		</clipPath>
	</g>
	<path class="st3" d="M59.9,270.9c17.5-17.6,42.9-52,69.6-25.2c24.2,24.2,42.5,35.3,23.5,62.1c-16.9-9.7-39.6-10.8-56.6-0.5
		L59.9,270.9z"/>
	<path class="st4" d="M59.4,375.4c7.2,7.2,25.2,24.8,25.2,24.8c13.5,10.7,28.7,16,44.4,0.4c17.6-17.5,40.6-33.7,23.8-60.2
		c-21.5,9.3-37.7,9.5-56.9-1.4L59.4,375.4z"/>
</g>
</svg>
